<mxfile host="app.diagrams.net" agent="Mozilla/5.0 (Windows NT 10.0; Win64; x64) AppleWebKit/537.36 (KHTML, like Gecko) Chrome/135.0.0.0 Safari/537.36" version="26.2.7">
  <diagram id="joOrP9ZrB_lX0yxU9mk1" name="Page-1">
    <mxGraphModel dx="1428" dy="743" grid="1" gridSize="10" guides="1" tooltips="1" connect="1" arrows="1" fold="1" page="1" pageScale="1" pageWidth="850" pageHeight="1100" math="0" shadow="0">
      <root>
        <mxCell id="0" />
        <mxCell id="1" parent="0" />
        <mxCell id="8gz5qT_sBi2_RYstINnQ-1" value="" style="rounded=0;whiteSpace=wrap;html=1;movable=1;resizable=1;rotatable=1;deletable=1;editable=1;locked=0;connectable=1;" vertex="1" parent="1">
          <mxGeometry x="280" y="80" width="440" height="320" as="geometry" />
        </mxCell>
        <mxCell id="8gz5qT_sBi2_RYstINnQ-40" style="edgeStyle=orthogonalEdgeStyle;rounded=0;orthogonalLoop=1;jettySize=auto;html=1;exitX=1;exitY=0.5;exitDx=0;exitDy=0;entryX=0;entryY=0.5;entryDx=0;entryDy=0;" edge="1" parent="1" source="8gz5qT_sBi2_RYstINnQ-2" target="8gz5qT_sBi2_RYstINnQ-14">
          <mxGeometry relative="1" as="geometry" />
        </mxCell>
        <mxCell id="8gz5qT_sBi2_RYstINnQ-2" value="Input Synchronizer" style="rounded=0;whiteSpace=wrap;html=1;" vertex="1" parent="1">
          <mxGeometry x="120" y="160" width="120" height="60" as="geometry" />
        </mxCell>
        <mxCell id="8gz5qT_sBi2_RYstINnQ-3" value="" style="edgeStyle=none;orthogonalLoop=1;jettySize=auto;html=1;rounded=0;" edge="1" parent="1">
          <mxGeometry width="100" relative="1" as="geometry">
            <mxPoint x="20" y="189.5" as="sourcePoint" />
            <mxPoint x="120" y="189.5" as="targetPoint" />
            <Array as="points" />
          </mxGeometry>
        </mxCell>
        <mxCell id="8gz5qT_sBi2_RYstINnQ-4" value="SW(0) Direction" style="edgeLabel;html=1;align=center;verticalAlign=middle;resizable=0;points=[];" vertex="1" connectable="0" parent="8gz5qT_sBi2_RYstINnQ-3">
          <mxGeometry x="-0.04" y="4" relative="1" as="geometry">
            <mxPoint y="-5" as="offset" />
          </mxGeometry>
        </mxCell>
        <mxCell id="8gz5qT_sBi2_RYstINnQ-39" style="edgeStyle=orthogonalEdgeStyle;rounded=0;orthogonalLoop=1;jettySize=auto;html=1;exitX=1;exitY=0.5;exitDx=0;exitDy=0;entryX=0;entryY=0.75;entryDx=0;entryDy=0;" edge="1" parent="1" source="8gz5qT_sBi2_RYstINnQ-6" target="8gz5qT_sBi2_RYstINnQ-14">
          <mxGeometry relative="1" as="geometry">
            <Array as="points">
              <mxPoint x="290" y="270" />
              <mxPoint x="290" y="225" />
            </Array>
          </mxGeometry>
        </mxCell>
        <mxCell id="8gz5qT_sBi2_RYstINnQ-6" value="Input Synchronizer" style="rounded=0;whiteSpace=wrap;html=1;" vertex="1" parent="1">
          <mxGeometry x="120" y="240" width="120" height="60" as="geometry" />
        </mxCell>
        <mxCell id="8gz5qT_sBi2_RYstINnQ-7" value="" style="edgeStyle=none;orthogonalLoop=1;jettySize=auto;html=1;rounded=0;" edge="1" parent="1">
          <mxGeometry width="100" relative="1" as="geometry">
            <mxPoint x="20" y="269.5" as="sourcePoint" />
            <mxPoint x="120" y="269.5" as="targetPoint" />
            <Array as="points" />
          </mxGeometry>
        </mxCell>
        <mxCell id="8gz5qT_sBi2_RYstINnQ-8" value="SW(1-4) Link Length" style="edgeLabel;html=1;align=center;verticalAlign=middle;resizable=0;points=[];" vertex="1" connectable="0" parent="8gz5qT_sBi2_RYstINnQ-7">
          <mxGeometry x="-0.04" y="4" relative="1" as="geometry">
            <mxPoint y="-15" as="offset" />
          </mxGeometry>
        </mxCell>
        <mxCell id="8gz5qT_sBi2_RYstINnQ-9" value="" style="endArrow=none;html=1;rounded=0;" edge="1" parent="1">
          <mxGeometry width="50" height="50" relative="1" as="geometry">
            <mxPoint x="60" y="280" as="sourcePoint" />
            <mxPoint x="80" y="260" as="targetPoint" />
          </mxGeometry>
        </mxCell>
        <mxCell id="8gz5qT_sBi2_RYstINnQ-10" value="4" style="text;html=1;align=center;verticalAlign=middle;whiteSpace=wrap;rounded=0;" vertex="1" parent="1">
          <mxGeometry x="39" y="274" width="60" height="30" as="geometry" />
        </mxCell>
        <mxCell id="8gz5qT_sBi2_RYstINnQ-35" style="edgeStyle=orthogonalEdgeStyle;rounded=0;orthogonalLoop=1;jettySize=auto;html=1;exitX=1;exitY=0.5;exitDx=0;exitDy=0;entryX=0.25;entryY=1;entryDx=0;entryDy=0;" edge="1" parent="1" source="8gz5qT_sBi2_RYstINnQ-11" target="8gz5qT_sBi2_RYstINnQ-14">
          <mxGeometry relative="1" as="geometry" />
        </mxCell>
        <mxCell id="8gz5qT_sBi2_RYstINnQ-37" style="edgeStyle=orthogonalEdgeStyle;rounded=0;orthogonalLoop=1;jettySize=auto;html=1;exitX=1;exitY=0.5;exitDx=0;exitDy=0;entryX=0.5;entryY=1;entryDx=0;entryDy=0;" edge="1" parent="1" source="8gz5qT_sBi2_RYstINnQ-11" target="8gz5qT_sBi2_RYstINnQ-36">
          <mxGeometry relative="1" as="geometry" />
        </mxCell>
        <mxCell id="8gz5qT_sBi2_RYstINnQ-38" value="reset" style="edgeLabel;html=1;align=center;verticalAlign=middle;resizable=0;points=[];" vertex="1" connectable="0" parent="8gz5qT_sBi2_RYstINnQ-37">
          <mxGeometry x="-0.8741" y="3" relative="1" as="geometry">
            <mxPoint x="3" y="-7" as="offset" />
          </mxGeometry>
        </mxCell>
        <mxCell id="8gz5qT_sBi2_RYstINnQ-11" value="Reset Synchronizer" style="rounded=0;whiteSpace=wrap;html=1;" vertex="1" parent="1">
          <mxGeometry x="120" y="340" width="120" height="60" as="geometry" />
        </mxCell>
        <mxCell id="8gz5qT_sBi2_RYstINnQ-12" value="" style="edgeStyle=none;orthogonalLoop=1;jettySize=auto;html=1;rounded=0;" edge="1" parent="1">
          <mxGeometry width="100" relative="1" as="geometry">
            <mxPoint x="19" y="369.5" as="sourcePoint" />
            <mxPoint x="119" y="369.5" as="targetPoint" />
            <Array as="points" />
          </mxGeometry>
        </mxCell>
        <mxCell id="8gz5qT_sBi2_RYstINnQ-13" value="KEY(0) Reset" style="edgeLabel;html=1;align=center;verticalAlign=middle;resizable=0;points=[];" vertex="1" connectable="0" parent="8gz5qT_sBi2_RYstINnQ-12">
          <mxGeometry x="-0.34" y="1" relative="1" as="geometry">
            <mxPoint x="17" y="-8" as="offset" />
          </mxGeometry>
        </mxCell>
        <mxCell id="8gz5qT_sBi2_RYstINnQ-21" style="edgeStyle=orthogonalEdgeStyle;rounded=0;orthogonalLoop=1;jettySize=auto;html=1;exitX=1;exitY=0.5;exitDx=0;exitDy=0;" edge="1" parent="1" source="8gz5qT_sBi2_RYstINnQ-14">
          <mxGeometry relative="1" as="geometry">
            <mxPoint x="510" y="190" as="targetPoint" />
          </mxGeometry>
        </mxCell>
        <mxCell id="8gz5qT_sBi2_RYstINnQ-22" value="state" style="edgeLabel;html=1;align=center;verticalAlign=middle;resizable=0;points=[];" vertex="1" connectable="0" parent="8gz5qT_sBi2_RYstINnQ-21">
          <mxGeometry x="-0.1451" relative="1" as="geometry">
            <mxPoint y="-10" as="offset" />
          </mxGeometry>
        </mxCell>
        <mxCell id="8gz5qT_sBi2_RYstINnQ-23" value="position" style="edgeLabel;html=1;align=center;verticalAlign=middle;resizable=0;points=[];" vertex="1" connectable="0" parent="8gz5qT_sBi2_RYstINnQ-21">
          <mxGeometry x="-0.2062" y="-1" relative="1" as="geometry">
            <mxPoint y="9" as="offset" />
          </mxGeometry>
        </mxCell>
        <mxCell id="8gz5qT_sBi2_RYstINnQ-14" value="State Machine" style="rounded=0;whiteSpace=wrap;html=1;" vertex="1" parent="1">
          <mxGeometry x="320" y="120" width="125" height="140" as="geometry" />
        </mxCell>
        <mxCell id="8gz5qT_sBi2_RYstINnQ-19" value="" style="group" vertex="1" connectable="0" parent="1">
          <mxGeometry x="510" y="140" width="30" height="100" as="geometry" />
        </mxCell>
        <mxCell id="8gz5qT_sBi2_RYstINnQ-15" value="" style="endArrow=none;html=1;rounded=0;" edge="1" parent="8gz5qT_sBi2_RYstINnQ-19">
          <mxGeometry width="50" height="50" relative="1" as="geometry">
            <mxPoint y="25" as="sourcePoint" />
            <mxPoint x="30" as="targetPoint" />
          </mxGeometry>
        </mxCell>
        <mxCell id="8gz5qT_sBi2_RYstINnQ-16" value="" style="endArrow=none;html=1;rounded=0;" edge="1" parent="8gz5qT_sBi2_RYstINnQ-19">
          <mxGeometry width="50" height="50" relative="1" as="geometry">
            <mxPoint y="75" as="sourcePoint" />
            <mxPoint x="30" y="100" as="targetPoint" />
          </mxGeometry>
        </mxCell>
        <mxCell id="8gz5qT_sBi2_RYstINnQ-17" value="" style="endArrow=none;html=1;rounded=0;" edge="1" parent="8gz5qT_sBi2_RYstINnQ-19">
          <mxGeometry width="50" height="50" relative="1" as="geometry">
            <mxPoint x="30" as="sourcePoint" />
            <mxPoint x="30" y="100" as="targetPoint" />
          </mxGeometry>
        </mxCell>
        <mxCell id="8gz5qT_sBi2_RYstINnQ-18" value="" style="endArrow=none;html=1;rounded=0;" edge="1" parent="8gz5qT_sBi2_RYstINnQ-19">
          <mxGeometry width="50" height="50" relative="1" as="geometry">
            <mxPoint y="25" as="sourcePoint" />
            <mxPoint y="75" as="targetPoint" />
          </mxGeometry>
        </mxCell>
        <mxCell id="8gz5qT_sBi2_RYstINnQ-28" value="" style="group" vertex="1" connectable="0" parent="1">
          <mxGeometry x="620" y="145" width="90" height="90" as="geometry" />
        </mxCell>
        <mxCell id="8gz5qT_sBi2_RYstINnQ-24" value="" style="rounded=0;whiteSpace=wrap;html=1;" vertex="1" parent="8gz5qT_sBi2_RYstINnQ-28">
          <mxGeometry width="70" height="70" as="geometry" />
        </mxCell>
        <mxCell id="8gz5qT_sBi2_RYstINnQ-25" value="" style="rounded=0;whiteSpace=wrap;html=1;" vertex="1" parent="8gz5qT_sBi2_RYstINnQ-28">
          <mxGeometry x="10" y="10" width="70" height="70" as="geometry" />
        </mxCell>
        <mxCell id="8gz5qT_sBi2_RYstINnQ-26" value="Seven&lt;div&gt;Segment&lt;/div&gt;&lt;div&gt;Display&lt;/div&gt;&lt;div&gt;x6&lt;/div&gt;" style="rounded=0;whiteSpace=wrap;html=1;" vertex="1" parent="8gz5qT_sBi2_RYstINnQ-28">
          <mxGeometry x="20" y="20" width="70" height="70" as="geometry" />
        </mxCell>
        <mxCell id="8gz5qT_sBi2_RYstINnQ-29" value="" style="edgeStyle=none;orthogonalLoop=1;jettySize=auto;html=1;rounded=0;" edge="1" parent="1">
          <mxGeometry width="100" relative="1" as="geometry">
            <mxPoint x="540" y="190" as="sourcePoint" />
            <mxPoint x="620" y="190" as="targetPoint" />
            <Array as="points" />
          </mxGeometry>
        </mxCell>
        <mxCell id="8gz5qT_sBi2_RYstINnQ-31" value="" style="endArrow=none;html=1;rounded=0;" edge="1" parent="1">
          <mxGeometry width="50" height="50" relative="1" as="geometry">
            <mxPoint x="570" y="200" as="sourcePoint" />
            <mxPoint x="590" y="180" as="targetPoint" />
          </mxGeometry>
        </mxCell>
        <mxCell id="8gz5qT_sBi2_RYstINnQ-32" value="6" style="text;html=1;align=center;verticalAlign=middle;whiteSpace=wrap;rounded=0;" vertex="1" parent="1">
          <mxGeometry x="550" y="159" width="60" height="30" as="geometry" />
        </mxCell>
        <mxCell id="8gz5qT_sBi2_RYstINnQ-34" value="link bits" style="text;html=1;align=center;verticalAlign=middle;whiteSpace=wrap;rounded=0;" vertex="1" parent="1">
          <mxGeometry x="550" y="193" width="60" height="30" as="geometry" />
        </mxCell>
        <mxCell id="8gz5qT_sBi2_RYstINnQ-41" style="edgeStyle=orthogonalEdgeStyle;rounded=0;orthogonalLoop=1;jettySize=auto;html=1;exitX=0.25;exitY=0;exitDx=0;exitDy=0;entryX=0.75;entryY=1;entryDx=0;entryDy=0;" edge="1" parent="1" source="8gz5qT_sBi2_RYstINnQ-36" target="8gz5qT_sBi2_RYstINnQ-14">
          <mxGeometry relative="1" as="geometry" />
        </mxCell>
        <mxCell id="8gz5qT_sBi2_RYstINnQ-42" value="state_tick" style="edgeLabel;html=1;align=center;verticalAlign=middle;resizable=0;points=[];" vertex="1" connectable="0" parent="8gz5qT_sBi2_RYstINnQ-41">
          <mxGeometry x="-0.4488" y="-1" relative="1" as="geometry">
            <mxPoint x="31" y="5" as="offset" />
          </mxGeometry>
        </mxCell>
        <mxCell id="8gz5qT_sBi2_RYstINnQ-36" value="Counter" style="rounded=0;whiteSpace=wrap;html=1;" vertex="1" parent="1">
          <mxGeometry x="430" y="290" width="120" height="60" as="geometry" />
        </mxCell>
      </root>
    </mxGraphModel>
  </diagram>
</mxfile>
